HIERARCHY
ROOT hip
{
  OFFSET 0 0 0
  CHANNELS 6 Xposition Yposition Zposition Zrotation Yrotation Xrotation
  JOINT abdomen
  {
    OFFSET 0 20.6881 -0.73152
    CHANNELS 3 Zrotation Xrotation Yrotation
    JOINT chest
    {
      OFFSET 0 11.7043 -0.48768
      CHANNELS 3 Zrotation Xrotation Yrotation
      JOINT neck
      {
        OFFSET 0 22.1894 -2.19456
        CHANNELS 3 Zrotation Xrotation Yrotation
        JOINT head
        {
          OFFSET -0.24384 7.07133 1.2192
          CHANNELS 3 Zrotation Xrotation Yrotation
          JOINT leftEye
          {
            OFFSET 4.14528 8.04674 8.04672
            CHANNELS 3 Zrotation Xrotation Yrotation
            End Site
            {
              OFFSET 1 0 0
            }
          }
          JOINT rightEye
          {
            OFFSET -3.6576 8.04674 8.04672
            CHANNELS 3 Zrotation Xrotation Yrotation
            End Site
            {
              OFFSET 1 0 0
            }
          }
        }
      }
      JOINT rCollar
      {
        OFFSET -2.68224 19.2634 -4.8768
        CHANNELS 3 Zrotation Xrotation Yrotation
        JOINT rShldr
        {
          OFFSET -8.77824 -1.95073 1.46304
          CHANNELS 3 Zrotation Xrotation Yrotation
          JOINT rForeArm
          {
            OFFSET -28.1742 -1.7115 0.48768
            CHANNELS 3 Zrotation Xrotation Yrotation
            JOINT rHand
            {
              OFFSET -22.5879 0.773209 7.07136
              CHANNELS 3 Zrotation Xrotation Yrotation
              JOINT rThumb1
              {
                OFFSET -1.2192 -0.487915 3.41376
                CHANNELS 3 Zrotation Xrotation Yrotation
                JOINT rThumb2
                {
                  OFFSET -3.37035 -0.52449 3.41376
                  CHANNELS 3 Zrotation Xrotation Yrotation
                  End Site
                  {
                    OFFSET -1.78271 -1.18214 1.43049
                  }
                }
              }
              JOINT rIndex1
              {
                OFFSET -7.75947 0.938293 5.60832
                CHANNELS 3 Zrotation Xrotation Yrotation
                JOINT rIndex2
                {
                  OFFSET -2.54057 -0.884171 1.56538
                  CHANNELS 3 Zrotation Xrotation Yrotation
                  End Site
                  {
                    OFFSET -1.62519 -0.234802 1.16502
                  }
                }
              }
              JOINT rMid1
              {
                OFFSET -8.24714 1.18213 3.41376
                CHANNELS 3 Zrotation Xrotation Yrotation
                JOINT rMid2
                {
                  OFFSET -3.10165 -0.590103 1.0647
                  CHANNELS 3 Zrotation Xrotation Yrotation
                  End Site
                  {
                    OFFSET -2.48547 -0.328903 0.83742
                  }
                }
              }
              JOINT rRing1
              {
                OFFSET -8.82822 0.546677 1.51678
                CHANNELS 3 Zrotation Xrotation Yrotation
                JOINT rRing2
                {
                  OFFSET -2.60934 -0.819778 -0.0198488
                  CHANNELS 3 Zrotation Xrotation Yrotation
                  End Site
                  {
                    OFFSET -2.33842 -0.294052 0.168128
                  }
                }
              }
              JOINT rPinky1
              {
                OFFSET -8.27202 -0.0477905 -0.4584
                CHANNELS 3 Zrotation Xrotation Yrotation
                JOINT rPinky2
                {
                  OFFSET -1.82734 -0.647385 -0.700984
                  CHANNELS 3 Zrotation Xrotation Yrotation
                  End Site
                  {
                    OFFSET -1.69225 -0.51767 -0.607171
                  }
                }
              }
            }
          }
        }
      }
      JOINT lCollar
      {
        OFFSET 2.68224 19.2634 -4.8768
        CHANNELS 3 Zrotation Xrotation Yrotation
        JOINT lShldr
        {
          OFFSET 8.77824 -1.95073 1.46304
          CHANNELS 3 Zrotation Xrotation Yrotation
          JOINT lForeArm
          {
            OFFSET 28.1742 -1.7115 0.48768
            CHANNELS 3 Zrotation Xrotation Yrotation
            JOINT lHand
            {
              OFFSET 22.5879 0.773209 7.07136
              CHANNELS 3 Zrotation Xrotation Yrotation
              JOINT lThumb1
              {
                OFFSET 1.2192 -0.487915 3.41376
                CHANNELS 3 Zrotation Xrotation Yrotation
                JOINT lThumb2
                {
                  OFFSET 3.37035 -0.52449 3.41376
                  CHANNELS 3 Zrotation Xrotation Yrotation
                  End Site
                  {
                    OFFSET 1.78271 -1.18214 1.43049
                  }
                }
              }
              JOINT lIndex1
              {
                OFFSET 7.75947 0.938293 5.60832
                CHANNELS 3 Zrotation Xrotation Yrotation
                JOINT lIndex2
                {
                  OFFSET 2.54057 -0.884171 1.56538
                  CHANNELS 3 Zrotation Xrotation Yrotation
                  End Site
                  {
                    OFFSET 1.62519 -0.234802 1.16502
                  }
                }
              }
              JOINT lMid1
              {
                OFFSET 8.24714 1.18213 3.41376
                CHANNELS 3 Zrotation Xrotation Yrotation
                JOINT lMid2
                {
                  OFFSET 3.10165 -0.590103 1.0647
                  CHANNELS 3 Zrotation Xrotation Yrotation
                  End Site
                  {
                    OFFSET 2.48547 -0.328903 0.83742
                  }
                }
              }
              JOINT lRing1
              {
                OFFSET 8.82822 0.546677 1.51678
                CHANNELS 3 Zrotation Xrotation Yrotation
                JOINT lRing2
                {
                  OFFSET 2.60934 -0.819778 -0.0198488
                  CHANNELS 3 Zrotation Xrotation Yrotation
                  End Site
                  {
                    OFFSET 2.33842 -0.294052 0.168128
                  }
                }
              }
              JOINT lPinky1
              {
                OFFSET 8.27202 -0.0477905 -0.4584
                CHANNELS 3 Zrotation Xrotation Yrotation
                JOINT lPinky2
                {
                  OFFSET 1.82734 -0.647385 -0.700984
                  CHANNELS 3 Zrotation Xrotation Yrotation
                  End Site
                  {
                    OFFSET 1.69225 -0.51767 -0.607171
                  }
                }
              }
            }
          }
        }
      }
    }
  }
  JOINT rButtock
  {
    OFFSET -8.77824 4.35084 1.2192
    CHANNELS 3 Zrotation Xrotation Yrotation
    JOINT rThigh
    {
      OFFSET 0 -1.70687 -2.19456
      CHANNELS 3 Zrotation Xrotation Yrotation
      JOINT rShin
      {
        OFFSET 0 -36.8199 0.73152
        CHANNELS 3 Zrotation Xrotation Yrotation
        JOINT rFoot
        {
          OFFSET 0.73152 -45.1104 -5.12064
          CHANNELS 3 Zrotation Xrotation Yrotation
          End Site
          {
            OFFSET -1.1221 -3.69964 12.103
          }
        }
      }
    }
  }
  JOINT lButtock
  {
    OFFSET 8.77824 4.35084 1.2192
    CHANNELS 3 Zrotation Xrotation Yrotation
    JOINT lThigh
    {
      OFFSET 0 -1.70687 -2.19456
      CHANNELS 3 Zrotation Xrotation Yrotation
      JOINT lShin
      {
        OFFSET 0 -36.8199 0.73152
        CHANNELS 3 Zrotation Xrotation Yrotation
        JOINT lFoot
        {
          OFFSET -0.73152 -45.1104 -5.12064
          CHANNELS 3 Zrotation Xrotation Yrotation
          End Site
          {
            OFFSET 1.1221 -3.69964 12.103
          }
        }
      }
    }
  }
}
MOTION
Frames:	7
Frame Time:	0.00833333
57.0552 85.5269 -226.572 0.0 0.0 0.0 2.341 -0.00222397 0.063721 0.646593 0.00595018 0.111938 -6.99019e-14 0.0 -7.69849e-23 -2.09662e-13 3.18055e-15 0.0 -0.0 0.0 0.0 -0.0 0.0 0.0 -3.44413e-14 1.0774e-16 4.96962e-17 -7.3062e-13 2.23012e-15 -1.19271e-15 -1.26598e-11 3.85602e-12 1.27222e-13 -1.44688e-10 -3.3691e-12 -2.76708e-13 -3.41347e-10 1.05315e-12 -2.83069e-13 -5.89499e-10 1.81928e-12 -4.84239e-13 -3.41338e-10 1.05674e-12 -2.98972e-13 7.73091 5.47488 0.417314 -3.41346e-10 1.05346e-12 -2.79889e-13 2.90554 0.965183 0.102902 -3.41331e-10 1.05406e-12 -2.85455e-13 10.2786 0.731801 0.0259123 -3.41343e-10 1.05078e-12 -2.76708e-13 2.22167 -0.733487 -0.20892 -3.44399e-14 1.13175e-16 -9.93923e-17 -7.3684e-13 2.72087e-15 -3.37934e-15 -1.26288e-11 -3.70634e-12 8.90555e-14 -1.44751e-10 4.22696e-12 -2.3218e-13 -3.4141e-10 1.12232e-12 -2.8625e-13 -5.896e-10 1.94014e-12 -4.75493e-13 -3.41417e-10 1.12512e-12 -2.73528e-13 -7.73091 5.47488 -0.417314 -3.4141e-10 1.12214e-12 -2.8625e-13 -2.90554 0.965183 -0.102902 -3.4142e-10 1.12284e-12 -2.81479e-13 -10.2786 0.731801 -0.0259123 -3.41411e-10 1.12472e-12 -2.79889e-13 -2.22167 -0.733487 0.20892 -2.03217e-16 0.0 -3.88251e-19 2.21573 -8.0297 -0.231376 0.00607018 8.97363 0.152058 -0.477939 -0.951434 0.0348907 2.03217e-16 0.0 3.88251e-19 1.3523 -1.92788 -0.00536193 0.00846482 -2.07867 0.0694445 0.423613 3.99898 -0.127253
57.0431 84.4036 -225.848 0.4187 -1.1077 -0.6956 2.21842 0.63434 0.499807 0.486217 -2.33398 0.258325 -2.00822 2.68645 -1.48137 2.19113 -1.16929 -2.65452 -0.0 0.0 0.0 -0.0 0.0 0.0 -2.58878e-14 -5.56826e-15 -5.4988e-15 22.0033 15.4469 -1.40182 -4.94226 -2.41101 7.53138 0.0257446 3.56151 0.497054 -2.79935e-10 2.02211e-10 -8.46362e-11 -4.84671e-10 3.50409e-10 -1.46112e-10 -2.7993e-10 2.02217e-10 -8.46532e-11 7.73091 5.47488 0.417314 -2.79935e-10 2.02211e-10 -8.46346e-11 2.90554 0.965183 0.102902 -2.79922e-10 2.02212e-10 -8.46379e-11 10.2786 0.731801 0.0259123 -2.79934e-10 2.0221e-10 -8.46299e-11 2.22167 -0.733487 -0.20892 -2.59086e-14 -5.56473e-15 -5.66497e-15 -22.0943 9.00323 2.59852 5.40916 -2.75252 -8.10401 -0.0183817 3.01528 -0.42167 -2.35763e-10 1.59795e-11 4.32221e-11 -4.06384e-10 2.83729e-11 7.48819e-11 -2.35772e-10 1.59849e-11 4.32358e-11 -7.73091 5.47488 -0.417314 -2.35764e-10 1.59777e-11 4.32249e-11 -2.90554 0.965183 -0.102902 -2.35773e-10 1.59779e-11 4.32268e-11 -10.2786 0.731801 -0.0259123 -2.35763e-10 1.59796e-11 4.32261e-11 -2.22167 -0.733487 0.20892 -2.03217e-16 0.0 -3.88251e-19 3.94943 -8.72468 5.33699 0.0315234 14.8109 0.279204 -1.97908 -5.36268 -9.21552 2.03217e-16 0.0 3.88251e-19 -0.575512 -4.06419 -5.88386 -0.042471 5.70328 -0.145438 1.33252 -2.37818 6.15118
57.0466 84.4053 -225.846 0.4499 -1.1337 -0.7073 2.07412 1.3154 0.955513 0.329047 -4.81256 0.412505 -3.97863 5.51891 -3.06034 4.3871 -2.3892 -5.46913 -0.0 0.0 0.0 -0.0 0.0 0.0 -1.69975e-14 -1.18298e-14 -1.24023e-14 46.2196 31.7582 -3.26703 -9.48254 -4.81976 15.5334 -0.0147848 7.33607 1.0304 -2.13957e-10 4.17602e-10 -1.75971e-10 -3.72054e-10 7.23706e-10 -3.03815e-10 -2.13955e-10 4.1761e-10 -1.75989e-10 7.73091 5.47488 0.417314 -2.13957e-10 4.17601e-10 -1.75971e-10 2.90554 0.965183 0.102902 -2.13948e-10 4.17602e-10 -1.75972e-10 10.2786 0.731801 0.0259123 -2.13959e-10 4.17602e-10 -1.75965e-10 2.22167 -0.733487 -0.20892 -1.70424e-14 -1.18284e-14 -1.25887e-14 -46.3777 18.4381 5.5634 10.2859 -5.47575 -16.7252 0.0106797 6.17833 -0.867982 -1.23398e-10 3.39095e-11 9.24257e-11 -2.11478e-10 6.02109e-11 1.60109e-10 -1.23408e-10 3.39177e-11 9.24404e-11 -7.73091 5.47488 -0.417314 -1.234e-10 3.39057e-11 9.24315e-11 -2.90554 0.965183 -0.102902 -1.23408e-10 3.39056e-11 9.24303e-11 -10.2786 0.731801 -0.0259123 -1.23397e-10 3.39071e-11 9.24273e-11 -2.22167 -0.733487 0.20892 -2.03217e-16 0.0 -3.88251e-19 5.9277 -9.35076 11.2401 0.0281179 20.9824 0.424768 -5.10649 -9.61697 -19.1911 2.03217e-16 0.0 3.88251e-19 -3.0911 -6.22036 -12.1383 -0.0314174 13.9296 -0.382164 3.81344 -8.91781 12.9314
57.0235 84.407 -225.843 0.3864 -1.2335 -0.7189 1.94419 1.90699 1.37265 0.201603 -7.0136 0.554607 -5.60487 8.0377 -4.48336 6.24899 -3.47774 -7.97668 -0.0 0.0 0.0 -0.0 0.0 0.0 -8.78073e-15 -1.69202e-14 -1.65958e-14 69.1279 46.2038 -5.86223 -12.9691 -6.73421 22.7396 -0.110907 10.6813 1.51453 -1.57112e-10 6.04528e-10 -2.53342e-10 -2.75013e-10 1.04759e-09 -4.37367e-10 -1.57113e-10 6.04538e-10 -2.53362e-10 7.73091 5.47488 0.417314 -1.57112e-10 6.04526e-10 -2.53344e-10 2.90554 0.965183 0.102902 -1.57106e-10 6.04527e-10 -2.53343e-10 10.2786 0.731801 0.0259123 -1.57116e-10 6.04529e-10 -2.53336e-10 2.22167 -0.733487 -0.20892 -8.84607e-15 -1.69205e-14 -1.67961e-14 -68.9736 26.7737 8.63069 13.9524 -7.59816 -24.513 0.0794162 9.04385 -1.27916 -2.44702e-11 4.56938e-11 1.30239e-10 -3.99526e-11 8.12383e-11 2.25597e-10 -2.44819e-11 4.57044e-11 1.30254e-10 -7.73091 5.47488 -0.417314 -2.44724e-11 4.56887e-11 1.30247e-10 -2.90554 0.965183 -0.102902 -2.44805e-11 4.56881e-11 1.30243e-10 -10.2786 0.731801 -0.0259123 -2.44679e-11 4.56895e-11 1.30238e-10 -2.22167 -0.733487 0.20892 -2.03217e-16 0.0 -3.88251e-19 7.81249 -9.81233 16.532 -0.00469613 26.4847 0.569119 -9.15367 -12.7276 -28.3513 2.03217e-16 0.0 3.88251e-19 -5.73247 -8.00543 -17.7752 0.0403378 21.2661 -0.614819 7.36664 -14.3558 19.3174
57.0194 84.4122 -225.831 0.3617 -1.2179 -0.7708 1.87079 2.27533 1.69271 0.123368 -8.521 0.663352 -6.6686 9.79303 -5.47908 7.50173 -4.26633 -9.70441 -0.0 0.0 0.0 -0.0 0.0 0.0 -2.24777e-15 -1.90827e-14 -1.40143e-14 86.4961 56.1002 -8.90707 -15.1114 -7.88702 27.8181 -0.210414 12.9563 1.8529 -1.231e-10 7.20291e-10 -2.95807e-10 -2.16912e-10 1.24794e-09 -5.10543e-10 -1.23103e-10 7.20301e-10 -2.95827e-10 7.73091 5.47488 0.417314 -1.231e-10 7.20289e-10 -2.95811e-10 2.90554 0.965183 0.102902 -1.23096e-10 7.20289e-10 -2.95807e-10 10.2786 0.731801 0.0259123 -1.23106e-10 7.20293e-10 -2.95801e-10 2.22167 -0.733487 -0.20892 -2.32441e-15 -1.90841e-14 -1.42131e-14 -85.3935 32.5808 11.1786 16.1672 -8.84351 -30.0264 0.155438 11.1673 -1.58985 4.08638e-11 4.21137e-11 1.39575e-10 7.31221e-11 7.52392e-11 2.41735e-10 4.08522e-11 4.2126e-11 1.39591e-10 -7.73091 5.47488 -0.417314 4.08618e-11 4.21089e-11 1.39585e-10 -2.90554 0.965183 -0.102902 4.08534e-11 4.21081e-11 1.39579e-10 -10.2786 0.731801 -0.0259123 4.08669e-11 4.2109e-11 1.39572e-10 -2.22167 -0.733487 0.20892 -2.03217e-16 0.0 -3.88251e-19 9.19978 -10.0932 20.2565 -0.046577 30.3145 0.680521 -12.5942 -14.3555 -34.8828 2.03217e-16 0.0 3.88251e-19 -7.7835 -9.16153 -21.7526 0.130591 26.3792 -0.79758 10.6164 -17.8123 24.0627
56.9986 84.3904 -225.845 0.3284 -1.368 -0.556 1.89178 2.30095 1.89591 0.0992051 -9.05223 0.728437 -7.07625 10.5046 -5.85451 8.00004 -4.65774 -10.3414 -0.0 0.0 0.0 -0.0 0.0 0.0 2.47174e-15 -1.65499e-14 1.63143e-15 93.8347 59.7543 -10.6488 -15.9022 -8.3002 29.8457 -0.252372 13.7285 1.97007 -1.27377e-10 7.4149e-10 -2.88995e-10 -2.24257e-10 1.28397e-09 -4.98405e-10 -1.27379e-10 7.41495e-10 -2.89011e-10 7.73091 5.47488 0.417314 -1.27377e-10 7.41488e-10 -2.89e-10 2.90554 0.965183 0.102902 -1.27374e-10 7.41486e-10 -2.88994e-10 10.2786 0.731801 0.0259123 -1.27384e-10 7.41493e-10 -2.88987e-10 2.22167 -0.733487 -0.20892 2.39672e-15 -1.65513e-14 1.4606e-15 -92.0937 35.0693 12.3814 16.9913 -9.29359 -32.2661 0.200785 12.2909 -1.7563 5.76673e-11 1.14068e-11 1.01865e-10 1.017e-10 2.15886e-11 1.76324e-10 5.76583e-11 1.14199e-11 1.01881e-10 -7.73091 5.47488 -0.417314 5.76668e-11 1.1405e-11 1.01874e-10 -2.90554 0.965183 -0.102902 5.76571e-11 1.14041e-11 1.01868e-10 -10.2786 0.731801 -0.0259123 5.76711e-11 1.14041e-11 1.01859e-10 -2.22167 -0.733487 0.20892 -2.03217e-16 0.0 -3.88251e-19 9.78866 -10.2624 21.776 -0.0673176 31.8015 0.725461 -14.0332 -14.8293 -37.4444 2.03217e-16 0.0 3.88251e-19 -8.62123 -9.64968 -23.3423 0.177667 28.3781 -0.877325 12.1029 -19.0844 26.06
56.9934 84.3999 -225.796 0.2621 -1.5225 -0.6511 1.98272 2.08334 2.01459 0.110738 -8.88651 0.761424 -7.04687 10.4744 -5.77904 7.98436 -4.77128 -10.1963 -0.0 0.0 0.0 -0.0 0.0 0.0 5.87003e-15 -1.06915e-14 2.64384e-14 92.932 59.0268 -10.4579 -15.8417 -8.27843 29.6758 -0.239584 13.4281 1.92496 -1.58701e-10 6.94902e-10 -2.47003e-10 -2.77829e-10 1.20222e-09 -4.25367e-10 -1.587e-10 6.94899e-10 -2.47014e-10 7.73091 5.47488 0.417314 -1.58701e-10 6.94901e-10 -2.4701e-10 2.90554 0.965183 0.102902 -1.58699e-10 6.94896e-10 -2.47001e-10 10.2786 0.731801 0.0259123 -1.58709e-10 6.94906e-10 -2.46993e-10 2.22167 -0.733487 -0.20892 5.80585e-15 -1.06922e-14 2.63141e-14 -91.5277 35.2471 12.3997 16.9585 -9.29951 -32.144 0.212923 12.6988 -1.81639 3.98776e-11 -3.8409e-11 3.08923e-11 7.0051e-11 -6.56313e-11 5.32563e-11 3.98729e-11 -3.83958e-11 3.09068e-11 -7.73091 5.47488 -0.417314 3.98794e-11 -3.84058e-11 3.08989e-11 -2.90554 0.965183 -0.102902 3.98677e-11 -3.84065e-11 3.08938e-11 -10.2786 0.731801 -0.0259123 3.9882e-11 -3.8408e-11 3.08832e-11 -2.22167 -0.733487 0.20892 -2.03217e-16 0.0 -3.88251e-19 9.78217 -10.3831 21.7174 -0.0640737 31.6154 0.71708 -13.8172 -14.7389 -37.1216 2.03217e-16 0.0 3.88251e-19 -8.50438 -9.71684 -23.2101 0.174986 28.1531 -0.87229 12.0124 -18.9757 25.9646
